<svg xmlns="http://www.w3.org/2000/svg" viewBox="0 0 98 30" fill="none">
  <path d="M32.4599 12.4414V17.7226C31.0754 17.7226 29.716 17.9535 29.7695 20.2972L29.8496 23.7953C29.9564 29.0431 26.521 30 23.0322 30H22.3659V25.545H22.6865C24.3381 25.545 24.4969 24.7203 24.4435 23.2348L24.3633 20.5949C24.2832 17.6908 25.0029 15.7101 27.3194 15.0175C25.322 14.5542 24.3099 12.8393 24.3633 10.3301L24.4435 6.86548C24.4628 6.02856 24.4821 5.08683 23.7519 4.63268L12.8818 29.6233H7.34216C4.98116 28.9292 3.40814 27.2204 3.48531 24.0261L3.56545 20.3959C3.61887 17.8548 2.28626 17.5571 0.875 17.5571V12.2774C2.25955 12.2774 3.61887 12.0465 3.56545 9.7028L3.48531 6.20475C3.37846 0.956914 6.81386 0 10.3027 0H10.969V4.45648H10.6485C8.99679 4.45648 8.83801 5.28125 8.89143 6.76675L8.97156 9.40813C9.0517 12.3123 8.33197 14.2929 6.01549 14.9856C8.01292 15.4473 9.02499 17.1637 8.97156 19.6714L8.89143 23.136C8.87659 23.7907 8.86175 24.5107 9.20751 25.0104L20.0643 0.00759444H23.516C27.1814 0.129107 29.9535 1.75738 29.8511 5.97388L29.7709 9.60407C29.7175 12.1452 31.0501 12.4429 32.4614 12.4429L32.4599 12.4414Z" fill="#0094FF"/>
  <path d="M39.3303 22.6804V7.33454H43.0465V13.4939H49.1049V7.33454H52.8135V22.6804H49.1049V16.5136H43.0465V22.6804H39.3303Z" fill="#0094FF"/>
  <path d="M55.5673 22.6804V7.33454H59.2834V13.8236H59.4861L64.5686 7.33454H68.9453L63.495 14.1833L69.0429 22.6804H64.5986L60.7699 16.6485L59.2834 18.5218V22.6804H55.5673Z" fill="#0094FF"/>
  <path d="M70.8339 22.6804V7.33454H77.1851C78.3362 7.33454 79.3297 7.55933 80.1655 8.00892C81.0063 8.45351 81.6544 9.07544 82.1099 9.8747C82.5653 10.669 82.7931 11.5931 82.7931 12.6472C82.7931 13.7062 82.5603 14.6328 82.0949 15.4271C81.6344 16.2164 80.9763 16.8283 80.1205 17.2629C79.2646 17.6975 78.2486 17.9148 77.0725 17.9148H73.1537V14.9925H76.3818C76.9424 14.9925 77.4103 14.8951 77.7857 14.7003C78.1661 14.5055 78.4538 14.2332 78.649 13.8835C78.8442 13.5289 78.9418 13.1167 78.9418 12.6472C78.9418 12.1726 78.8442 11.763 78.649 11.4183C78.4538 11.0686 78.1661 10.7989 77.7857 10.609C77.4053 10.4192 76.9374 10.3243 76.3818 10.3243H74.55V22.6804H70.8339Z" fill="#0094FF"/>
  <path d="M93.3582 11.9353C93.3082 11.3858 93.0855 10.9587 92.6901 10.654C92.2997 10.3443 91.7417 10.1894 91.016 10.1894C90.5355 10.1894 90.1351 10.2519 89.8148 10.3767C89.4945 10.5016 89.2542 10.674 89.0941 10.8938C88.9339 11.1086 88.8513 11.3558 88.8463 11.6356C88.8363 11.8654 88.8814 12.0677 88.9815 12.2425C89.0866 12.4174 89.2367 12.5722 89.4319 12.7071C89.6321 12.837 89.8723 12.9519 90.1526 13.0518C90.4329 13.1517 90.7482 13.2391 91.0985 13.314L92.4198 13.6138C93.1806 13.7786 93.8512 13.9984 94.4318 14.2732C95.0173 14.5479 95.5078 14.8751 95.9032 15.2548C96.3036 15.6344 96.6064 16.0715 96.8116 16.5661C97.0168 17.0606 97.1219 17.6151 97.1269 18.2295C97.1219 19.1986 96.8766 20.0304 96.3912 20.7247C95.9057 21.4191 95.2075 21.9511 94.2966 22.3208C93.3908 22.6904 92.2972 22.8753 91.016 22.8753C89.7297 22.8753 88.6086 22.6829 87.6527 22.2983C86.6968 21.9137 85.9535 21.3292 85.423 20.5449C84.8925 19.7606 84.6197 18.769 84.6047 17.5701H88.1632C88.1932 18.0647 88.3258 18.4768 88.5611 18.8065C88.7963 19.1362 89.1191 19.386 89.5295 19.5558C89.9449 19.7257 90.4254 19.8106 90.9709 19.8106C91.4714 19.8106 91.8968 19.7432 92.2471 19.6083C92.6025 19.4734 92.8753 19.2861 93.0654 19.0463C93.2556 18.8065 93.3532 18.5318 93.3582 18.222C93.3532 17.9323 93.2631 17.685 93.088 17.4802C92.9128 17.2704 92.6425 17.0906 92.2772 16.9407C91.9168 16.7859 91.4564 16.6435 90.8958 16.5136L89.2893 16.139C87.958 15.8342 86.9095 15.3422 86.1437 14.6628C85.378 13.9784 84.9976 13.0543 85.0026 11.8904C84.9976 10.9412 85.2528 10.1095 85.7683 9.39514C86.2838 8.6808 86.997 8.12381 87.9079 7.72418C88.8188 7.32455 89.8573 7.12473 91.0235 7.12473C92.2146 7.12473 93.2481 7.32704 94.124 7.73167C95.0048 8.13131 95.688 8.69329 96.1735 9.41763C96.6589 10.142 96.9067 10.9812 96.9167 11.9353H93.3582Z" fill="#0094FF"/>
</svg>