<svg width="392" height="187" viewBox="0 0 392 187" fill="none" xmlns="http://www.w3.org/2000/svg">
<path d="M1.94336 62.8837L69.769 42.4952L85.9091 16.8687L88.217 34.447L93.1282 28.574L126.922 68.9275L117.694 83.9533L145.982 84.3789L158.327 161.282L138.29 157.486L149.233 167.389L126.826 160.807L60.2769 181.81L4.52524 147.667L1.94336 62.8837Z" fill="#AF8D67"/>
<path d="M69.769 42.4952L1.94336 62.8837L4.52524 147.667M69.769 42.4952L79.1501 124.11M69.769 42.4952L85.9091 16.8687L88.217 34.447M4.52524 147.667L79.1501 124.11M4.52524 147.667L60.2769 181.81L126.826 160.807M79.1501 124.11L98.8795 109.453L90.5772 59.1627M79.1501 124.11L126.826 160.807M79.1501 124.11L105.46 127.777L127.347 147.583M88.217 34.447L93.1282 28.574L126.922 68.9275L117.694 83.9533M88.217 34.447L90.5772 59.1627M90.5772 59.1627L117.694 83.9533M126.826 160.807L149.233 167.389L138.29 157.486M127.347 147.583L117.694 83.9533M127.347 147.583L138.29 157.486M138.29 157.486L158.327 161.282L145.982 84.3789L117.694 83.9533" stroke="#956F43" stroke-width="3"/>
<path d="M40.3955 56.8477H117.449L136.151 152.592L40.3955 142.12V56.8477Z" fill="#AF8D67"/>
<path d="M121.801 85.943L126.884 145.867L105.848 126.847L81.209 123.484L97.8615 110.643L91.1893 60.5688L121.801 85.943Z" fill="#74522A"/>
<path d="M357.288 98.8007L358.598 98.2838L376.145 67.3855L375.789 65.8961C370.149 62.1614 360.111 59.3615 347.317 57.6648C334.476 55.9618 318.7 55.3512 301.448 56.1005C280.456 56.4544 263.097 59.7372 246.074 62.9565C243.089 63.5211 240.114 64.0837 237.131 64.6282C217.133 68.2795 196.717 71.1383 170.32 68.4478C147.998 66.1727 132.649 62.6379 119.113 59.5206C116.597 58.9416 114.145 58.3769 111.723 57.8374C96.2284 54.3867 81.9847 51.9788 60.5174 53.4851C57.9285 53.6668 56.2549 53.8426 55.4001 54.0514C55.1887 54.103 54.9391 54.1764 54.7216 54.2953C54.6144 54.354 54.4402 54.4631 54.2906 54.6502C54.121 54.8622 53.9739 55.1931 54.0344 55.5921C54.0885 55.9489 54.2838 56.1834 54.4034 56.3005C54.5286 56.4231 54.6605 56.5054 54.7549 56.5575C54.945 56.6627 55.1628 56.7427 55.3609 56.806C56.1447 57.0563 57.5401 57.3229 59.2221 57.6239C59.7472 57.7178 60.3065 57.8161 60.8953 57.9196C62.2386 58.1557 63.7351 58.4188 65.3267 58.7183C69.908 59.5805 75.1599 60.7249 79.4255 62.3125C81.5598 63.1067 83.3941 63.9929 84.7609 64.976C86.1381 65.9665 86.9289 66.9733 87.1892 67.976C88.6023 73.415 90.6439 80.9908 92.9817 86.8701C94.1442 89.794 95.4175 92.3978 96.7782 94.1114C97.456 94.9657 98.2258 95.689 99.1003 96.0757C99.9501 96.4512 100.86 96.4886 101.742 96.0981C106.927 95.9149 111.71 95.6905 116.14 95.4818C128.002 94.9245 137.329 94.4862 145.05 95.2888C150.334 95.8378 154.785 96.9651 158.707 99.0019C162.623 101.034 166.071 104.002 169.309 108.314C171.269 110.924 175.033 112.206 179.76 112.727C184.553 113.254 190.658 113.031 197.691 112.326C209.884 111.103 225.071 108.409 241.419 105.509C243.934 105.062 246.477 104.611 249.041 104.16C268.295 100.769 288.758 97.357 307.738 95.8333C326.741 94.3074 344.131 94.6874 357.288 98.8007Z" fill="#FFF537" stroke="white" stroke-width="3" stroke-linejoin="bevel"/>
<path d="M360.078 135.54C360.927 136.274 360.928 136.273 360.928 136.273L360.93 136.27L360.933 136.267L360.94 136.258C360.946 136.251 360.953 136.243 360.961 136.233C360.977 136.214 360.997 136.188 361.02 136.158C361.068 136.095 361.131 136.009 361.207 135.898C361.358 135.675 361.561 135.349 361.795 134.904C362.263 134.012 362.854 132.646 363.411 130.67C364.525 126.721 365.503 120.337 365.085 110.451C364.666 100.534 362.668 94.8829 360.668 91.6724C359.666 90.0642 358.668 89.0761 357.88 88.4785C357.487 88.1808 357.15 87.9833 356.898 87.8561C356.77 87.7918 356.666 87.7462 356.584 87.7133C356.552 87.7006 356.523 87.6901 356.499 87.6811C339.1 80.0201 325.79 78.45 299.881 80.8227C284.469 82.2349 268.595 85.3578 252.862 88.4538C249.039 89.2055 245.225 89.9565 241.427 90.6806C221.954 94.3929 202.907 97.4111 185.21 96.4933C158.179 95.0908 141.8 91.552 128.684 87.996C125.727 87.1942 122.924 86.3871 120.195 85.6017C110.879 82.9208 102.412 80.4839 91.533 79.3102C90.1281 78.7777 88.8249 78.6393 87.6444 78.9295C86.4123 79.2325 85.445 79.9707 84.7089 80.9431C83.2815 82.8273 82.6284 85.7094 82.3733 88.6789C81.8579 94.6764 82.9022 101.932 83.8321 105.041L84.6475 105.811C93.6007 107.94 101.811 109.838 109.293 111.569C119.749 113.986 128.783 116.075 136.439 118.006C149.615 121.328 158.484 124.131 163.377 127.219C164.216 127.748 165.512 128.095 167.042 128.351C168.618 128.615 170.6 128.804 172.926 128.938C177.582 129.205 183.717 129.252 190.939 129.181C198.276 129.109 206.794 128.915 216.066 128.702C225.004 128.498 234.641 128.278 244.596 128.136C285.31 127.556 331.62 128.286 359.759 136.616L360.927 136.274L360.078 135.54Z" fill="#F68887" stroke="white" stroke-width="3" stroke-linejoin="bevel"/>
<path d="M90.9492 105.843L90.2168 106.067C85.2248 109.834 81.5599 113.133 78.982 116.028C76.4123 118.916 74.8742 121.457 74.2193 123.712C73.553 126.008 73.8057 128.004 74.7922 129.675C75.7547 131.305 77.3459 132.506 79.1428 133.401C82.7232 135.182 87.5214 135.942 91.3247 136.272C93.2458 136.439 94.9492 136.498 96.1739 136.516C96.7866 136.525 97.2803 136.523 97.6229 136.52C97.7942 136.517 97.9274 136.515 98.0187 136.513C98.0643 136.512 98.0995 136.511 98.1241 136.511L98.1346 136.51C112.104 136.724 124.286 139.785 138.064 143.248C139.43 143.591 140.811 143.938 142.211 144.287C157.732 148.152 175.465 152.171 199.707 152.966C211.892 153.365 225.639 151.558 240.015 148.976C247.208 147.684 254.575 146.194 261.994 144.685C262.47 144.588 262.946 144.491 263.422 144.394C270.375 142.979 277.369 141.555 284.323 140.263C299.186 137.503 313.812 135.359 327.351 135.201C340.891 135.044 353.265 136.876 363.667 142.004L365.259 141.233C367.494 130.673 367.51 123.792 366.935 119.504C366.647 117.359 366.212 115.861 365.831 114.877C365.641 114.385 365.464 114.023 365.328 113.772C365.26 113.647 365.202 113.551 365.158 113.481C365.135 113.445 365.116 113.416 365.101 113.394C365.093 113.383 365.087 113.373 365.081 113.365L365.072 113.354L365.069 113.35L365.068 113.347C365.068 113.347 365.066 113.345 364.162 114.007L365.066 113.345L364.807 113.09C355.637 106.627 343.693 104.672 330.181 105.167C316.66 105.662 301.408 108.619 285.505 112.136C281.457 113.031 277.367 113.962 273.252 114.899C244.918 121.349 215.358 128.079 189.761 125.296C160.282 122.092 141.076 117.524 126.53 113.616C123.993 112.935 121.592 112.271 119.297 111.638C108.475 108.647 100.026 106.312 90.9492 105.843Z" fill="#91CCF4" stroke="white" stroke-width="3" stroke-linejoin="bevel"/>
<path d="M143.675 124.867C138 124.076 132.788 128.148 132.042 133.956C131.869 135.303 132.036 136.611 132.331 137.895L80.1235 154.905C78.3086 156.323 116.635 152.545 118.028 154.41C118.742 155.366 119.768 155.852 120.838 156.001C121.907 156.15 123.024 155.92 123.95 155.235L137.367 144.637C138.459 145.261 139.649 145.77 141.006 145.959C146.681 146.749 153.812 142.487 153.231 135.256L143.535 138.566L139.722 134.153L146.78 125.562C146.78 125.562 144.369 125.006 143.711 124.915L143.675 124.867Z" fill="#242E3F"/>
<path d="M82.8029 103.292L84.0312 110.233C83.6587 110.655 83.3909 111.142 83.1238 111.63L76.1374 112.683L74.9517 118.065L80.8017 122.171C80.8676 122.777 80.9207 123.261 81.0336 123.839L77.0209 129.533L79.9953 134.175L86.9825 133.122C87.4642 133.473 87.8877 133.73 88.4158 134.053L89.6449 140.994L95.1135 142.295L99.1262 136.601C99.6611 136.532 100.225 136.509 100.806 136.411L106.657 140.516L111.278 137.682L110.05 130.741C110.346 130.301 110.689 129.831 110.957 129.344L117.944 128.292L119.129 122.909L113.279 118.803C113.196 118.272 113.13 117.666 113.047 117.135L117.059 111.441L114.085 106.799L107.099 107.852C106.692 107.519 106.164 107.197 105.665 106.921L104.436 99.98L98.9676 98.6792L94.9549 104.373C94.42 104.443 93.8088 104.494 93.2739 104.564L87.4238 100.457L82.8029 103.292ZM92.549 113.478C96.3852 111.126 101.474 112.336 103.943 116.188C106.412 120.041 105.308 125.05 101.472 127.403C97.636 129.756 92.5475 128.545 90.0788 124.692C87.6101 120.84 88.7135 115.831 92.549 113.478Z" fill="#242E3F"/>
<path d="M2.27344 62.9764L70.0991 42.588L86.2396 16.9614L88.5467 34.5398L90.9077 59.2554L99.2092 109.545L79.4806 124.203L105.789 127.87L127.676 147.676L138.619 157.579L149.563 167.482L127.156 160.9L60.607 181.902L4.85532 147.76L2.27344 62.9764Z" fill="#AF8D67"/>
<path d="M70.0991 42.588L2.27344 62.9764L4.85532 147.76M70.0991 42.588L79.4806 124.203M70.0991 42.588L86.2396 16.9614L88.5467 34.5398L90.9077 59.2554L99.2092 109.545L79.4806 124.203M4.85532 147.76L79.4806 124.203M4.85532 147.76L60.607 181.902L127.156 160.9M79.4806 124.203L127.156 160.9M79.4806 124.203L105.789 127.87L127.676 147.676L138.619 157.579L149.563 167.482L127.156 160.9" stroke="#956F43" stroke-width="3"/>
<path d="M136.926 83.9105C137.13 86.4342 136.797 88.6101 135.927 90.436C135.076 92.2417 133.801 93.7586 132.101 94.9861C130.42 96.1919 128.374 97.1246 125.964 97.7821C123.556 98.4591 120.915 98.9109 118.04 99.136C116.739 99.2385 115.379 99.2175 113.96 99.0747C112.543 98.952 111.133 98.6812 109.731 98.2638C108.328 97.8262 106.972 97.2488 105.663 96.5307C104.354 95.8134 103.158 94.9203 102.075 93.8521C101.01 92.7638 100.078 91.4982 99.2776 90.0568C98.4966 88.6139 97.9333 86.9578 97.5877 85.0901L110.269 83.8319C110.275 84.3787 110.299 84.9337 110.345 85.4962C110.39 86.0595 110.437 86.6422 110.485 87.2435C110.622 88.9325 110.819 90.6559 111.078 92.4137C112.235 92.4601 113.388 92.4668 114.539 92.4354C115.69 92.404 116.838 92.3434 117.984 92.2536C119.13 92.1639 120.264 92.0457 121.386 91.8991C122.507 91.7525 123.646 91.5655 124.8 91.3381C124.844 90.6701 124.871 90.0239 124.879 89.3978C124.885 88.7523 124.862 88.1 124.808 87.4395C124.722 86.3721 124.568 85.2995 124.345 84.2231C124.121 83.1467 123.858 82.0726 123.558 81.0022C122.185 80.9536 120.607 80.9013 118.824 80.8459C117.041 80.7905 115.202 80.6514 113.308 80.4285C111.432 80.1847 109.575 79.8226 107.738 79.3409C105.919 78.839 104.269 78.1284 102.788 77.2091C101.304 76.2704 100.075 75.0773 99.098 73.6298C98.1218 72.1824 97.5465 70.3812 97.3729 68.2262C97.2525 66.7312 97.4148 65.3508 97.86 64.085C98.3253 62.8177 98.9851 61.6718 99.8409 60.6474C100.715 59.602 101.744 58.6714 102.929 57.8556C104.133 57.0383 105.407 56.3425 106.748 55.7684C108.11 55.1929 109.499 54.7322 110.918 54.3865C112.336 54.0409 113.716 53.8155 115.056 53.7104C117.989 53.4805 120.609 53.7342 122.916 54.4716C125.223 55.2089 127.193 56.2561 128.827 57.6128C130.479 58.9486 131.796 60.5061 132.78 62.285C133.764 64.0639 134.398 65.8703 134.683 67.7041L121.483 70.175C121.521 69.4296 121.52 68.6872 121.479 67.948C121.458 67.1877 121.417 66.4387 121.358 65.7009C121.221 64.0119 120.967 62.3125 120.595 60.6028C119.926 60.5574 119.261 60.5413 118.597 60.5542C117.954 60.5657 117.301 60.5972 116.641 60.6491C114.019 60.8546 111.393 61.3829 108.764 62.2337C108.765 62.7221 108.784 63.1993 108.821 63.6652C108.858 64.1312 108.895 64.5874 108.931 65.034C109.041 66.3931 109.197 67.7289 109.401 69.0416C109.622 70.3332 109.941 71.6269 110.358 72.9229C111.988 73.01 113.755 73.106 115.659 73.2106C117.562 73.2959 119.472 73.4685 121.388 73.7285C123.323 73.9676 125.188 74.3195 126.985 74.7843C128.8 75.2284 130.413 75.844 131.825 76.6324C133.255 77.3991 134.429 78.382 135.346 79.5795C136.262 80.7584 136.788 82.202 136.926 83.9105Z" fill="#242E3F"/>
<path d="M278.804 55.3706C277.291 60.7037 275.804 65.2866 274.342 69.1192C272.88 72.9519 271.571 76.1059 270.415 78.5803C269.061 81.4751 267.769 83.8889 266.539 85.8232C266.558 86.2533 266.596 86.7492 266.654 87.3117C266.709 87.8547 266.78 88.4539 266.87 89.1099C267.015 90.1713 267.19 91.3075 267.395 92.5178C267.6 93.7288 267.81 94.8994 268.023 96.0304C268.256 97.1584 268.476 98.1899 268.682 99.1256C268.906 100.039 269.099 100.74 269.265 101.228L253.172 103.689C253.205 103.35 253.219 102.808 253.215 102.062C253.228 101.293 253.22 100.44 253.189 99.5004C253.176 98.5392 253.137 97.5324 253.071 96.4799C253.025 95.4245 252.979 94.4386 252.932 93.5208C252.882 92.5844 252.83 91.766 252.773 91.0659C252.736 90.3635 252.71 89.8856 252.695 89.632C251.688 88.4509 250.607 87.1613 249.452 85.7641C248.295 84.3481 247.09 82.8693 245.838 81.3277C244.582 79.7674 243.302 78.1704 241.997 76.5383C240.689 74.8859 239.401 73.2319 238.132 71.5748C236.861 69.8985 235.611 68.2389 234.384 66.5959C233.175 64.9504 232.033 63.355 230.957 61.8096L247.477 60.3233C248.062 61.581 248.79 63.0161 249.66 64.6287C250.529 66.2412 251.501 67.9578 252.576 69.7785C253.648 71.5799 254.806 73.4288 256.048 75.325C257.29 77.2219 258.566 79.074 259.876 80.8834C260.918 78.1487 261.896 75.3833 262.812 72.5872C263.199 71.3952 263.598 70.1426 264.009 68.8295C264.419 67.5165 264.807 66.1868 265.174 64.8403C265.537 63.4745 265.875 62.132 266.186 60.8126C266.495 59.474 266.752 58.1914 266.958 56.9647L278.804 55.3706Z" fill="#242E3F"/>
<path d="M359.527 85.1794C359.97 83.4127 360.324 81.5561 360.59 79.6083C360.873 77.6448 361.073 75.6417 361.19 73.6C361.314 71.4391 361.352 69.2901 361.303 67.1531C361.256 64.9991 361.128 62.9255 360.917 60.9326C359.98 60.6037 358.955 60.3038 357.844 60.0329C356.884 59.7881 355.763 59.5507 354.478 59.3207C353.21 59.0917 351.828 58.9328 350.33 58.8439C350.042 58.8267 349.744 58.8089 349.437 58.7908C349.131 58.7726 348.824 58.7714 348.515 58.7872C348.499 59.0765 348.471 59.5699 348.431 60.2675C348.391 60.9652 348.341 61.8244 348.283 62.8454C348.242 63.8503 348.186 64.9908 348.112 66.2669C348.057 67.5271 347.998 68.8553 347.935 70.2515C347.872 71.6478 347.816 73.0786 347.766 74.5439C347.716 76.009 347.676 77.4578 347.645 78.8903C347.614 80.3227 347.586 81.7042 347.561 83.0342C347.554 84.3484 347.562 85.5609 347.583 86.6725C349.153 86.6971 350.651 86.6328 352.076 86.478C353.519 86.3246 354.793 86.1526 355.897 85.9626C357.19 85.7322 358.401 85.4712 359.527 85.1794ZM346.138 52.4484C348.146 52.5677 350.199 52.7921 352.298 53.1217C354.413 53.4522 356.451 53.9403 358.412 54.5862C360.39 55.2329 362.246 56.0688 363.98 57.0938C365.714 58.1187 367.205 59.3768 368.451 60.8679C369.715 62.3601 370.681 64.1248 371.349 66.1621C372.019 68.1824 372.277 70.5282 372.124 73.1996C371.976 75.7861 371.504 78.063 370.708 80.0302C369.912 81.9974 368.884 83.7119 367.622 85.1735C366.378 86.6193 364.943 87.8229 363.316 88.7848C361.69 89.7467 359.965 90.5067 358.14 91.064C356.332 91.6227 354.467 91.99 352.545 92.1658C350.621 92.3587 348.741 92.4006 346.903 92.2914C345.115 92.1852 343.544 92.0491 342.187 91.883C340.83 91.7342 339.677 91.5891 338.729 91.4477C337.628 91.2794 336.674 91.1036 335.865 90.9188C336.26 87.5955 336.63 84.2796 336.973 80.9712C337.317 77.662 337.584 74.3317 337.777 70.9797C337.871 69.3293 337.936 67.7538 337.97 66.2534C338.022 64.754 338.056 63.2707 338.072 61.8033C338.088 60.336 338.087 58.8591 338.07 57.3727C338.071 55.8703 338.068 54.2823 338.061 52.6088C339.489 52.4204 340.886 52.3327 342.251 52.3455C343.617 52.3413 344.913 52.3756 346.138 52.4484Z" fill="#242E3F"/>
<path d="M190.318 90.3383C189.964 91.4214 189.461 92.3706 188.81 93.1867C188.164 93.9893 187.387 94.6715 186.481 95.2347C185.578 95.7837 184.56 96.2176 183.426 96.5362C182.292 96.8556 181.065 97.0591 179.745 97.1473L185.223 111.569L175.237 109.459L172.65 96.8429C172.193 96.7846 171.724 96.7142 171.243 96.6335C170.763 96.5519 170.275 96.4682 169.78 96.3821C169.423 97.849 169.067 99.3854 168.712 100.991C168.37 102.601 168.008 104.32 167.626 106.147L157.554 103.594C158.998 100.116 160.372 96.6395 161.678 93.1628C163.002 89.6763 164.25 86.142 165.42 82.5598C165.724 81.6293 165.994 80.7796 166.23 80.0114C166.48 79.2477 166.709 78.5005 166.917 77.7697C167.139 77.0426 167.354 76.2909 167.562 75.5129C167.77 74.7358 168.001 73.8658 168.253 72.9033C170.101 72.9423 171.928 73.1361 173.736 73.4849C175.557 73.8382 177.398 74.321 179.258 74.9332C180.188 75.2392 181.174 75.6326 182.215 76.1143C183.257 76.5953 184.263 77.1645 185.231 77.822C186.214 78.4832 187.114 79.2335 187.932 80.0712C188.763 80.9142 189.431 81.8567 189.936 82.8994C190.455 83.9466 190.766 85.0873 190.87 86.3208C190.974 87.555 190.79 88.8939 190.318 90.3383ZM175.052 78.4167C174.308 80.6936 173.602 82.8994 172.936 85.0327C172.288 87.1571 171.661 89.3577 171.055 91.6346L171.909 91.9158C173.13 92.3175 174.37 92.687 175.627 93.0244C176.886 93.361 178.101 93.6153 179.276 93.7866C179.715 93.1007 180.133 92.2921 180.53 91.3616C180.944 90.4213 181.322 89.431 181.662 88.389C181.88 87.7225 182.077 87.0493 182.253 86.3694C182.434 85.6753 182.592 85.0043 182.727 84.3565C182.866 83.6946 182.966 83.0588 183.027 82.4484C183.102 81.8425 183.146 81.2875 183.156 80.7833C182.971 80.6921 182.749 80.5956 182.49 80.4954C182.244 80.3989 181.962 80.2986 181.643 80.1932C181.005 79.983 180.304 79.7758 179.541 79.5708C178.791 79.3704 178.077 79.1811 177.397 79.0039C176.616 78.8079 175.834 78.6127 175.052 78.4167Z" fill="#242E3F"/>
<path d="M329.144 64.6058C329.279 65.6992 329.228 66.7365 328.992 67.7178C328.755 68.6851 328.356 69.601 327.792 70.4653C327.228 71.3156 326.515 72.1128 325.652 72.8567C324.79 73.6006 323.799 74.2818 322.68 74.9003L333.388 85.2811L323.78 87.5266L316.344 77.5415C315.919 77.6777 315.479 77.8086 315.025 77.935C314.571 78.0606 314.11 78.1871 313.642 78.315C313.931 79.7451 314.25 81.2359 314.596 82.7865C314.957 84.3364 315.345 85.9894 315.759 87.7458L305.895 89.6382C305.733 86.0022 305.511 82.3953 305.229 78.8161C304.959 75.222 304.602 71.6163 304.159 68C304.043 67.0609 303.932 66.2068 303.823 65.4375C303.728 64.6667 303.623 63.9184 303.506 63.1929C303.402 62.4658 303.282 61.7193 303.145 60.9534C303.009 60.1876 302.854 59.3315 302.681 58.3851C304.314 57.6621 305.994 57.0828 307.719 56.6474C309.458 56.2103 311.268 55.8785 313.147 55.6521C314.087 55.5389 315.111 55.4795 316.22 55.4739C317.33 55.4683 318.443 55.5546 319.56 55.7328C320.692 55.9094 321.787 56.1971 322.847 56.5957C323.92 56.9927 324.891 57.5442 325.761 58.2502C326.644 58.9546 327.384 59.8255 327.981 60.863C328.578 61.9006 328.965 63.1481 329.144 64.6058ZM310.893 60.4254C311.175 62.7241 311.461 64.944 311.752 67.0852C312.056 69.2106 312.409 71.3941 312.812 73.6356L313.674 73.5317C314.909 73.383 316.145 73.1984 317.385 72.978C318.624 72.7576 319.793 72.4816 320.891 72.1502C320.994 71.3696 321.029 70.4907 320.994 69.5135C320.972 68.5205 320.896 67.4984 320.768 66.4471C320.685 65.7744 320.581 65.1041 320.457 64.4363C320.331 63.7546 320.194 63.1026 320.047 62.4803C319.897 61.844 319.724 61.2461 319.527 60.6866C319.345 60.1255 319.155 59.6221 318.958 59.1764C318.758 59.172 318.524 59.1789 318.256 59.197C318.002 59.2134 317.714 59.241 317.392 59.2799C316.746 59.3576 316.047 59.463 315.295 59.5963C314.557 59.7279 313.855 59.8553 313.187 59.9784C312.422 60.1274 311.657 60.2764 310.893 60.4254Z" fill="#242E3F"/>
<path d="M204.102 113.462C204.134 113.054 204.157 112.645 204.175 112.235C204.193 111.812 204.218 111.396 204.249 110.988C203.451 111.605 202.63 112.057 201.787 112.345C200.958 112.62 200.199 112.815 199.51 112.931C198.707 113.066 197.917 113.117 197.14 113.084C195.732 112.974 194.39 112.648 193.113 112.109C191.851 111.585 190.745 110.853 189.796 109.914C188.849 108.975 188.106 107.841 187.572 106.509C187.051 105.165 186.82 103.639 186.881 101.929C187.012 100.212 187.364 98.6673 187.937 97.2955C188.51 95.9102 189.3 94.747 190.307 93.806C191.315 92.8658 192.529 92.1754 193.951 91.7348C195.374 91.28 196.994 91.117 198.812 91.2456C198.868 91.2501 199.079 91.2808 199.443 91.3376C199.822 91.3818 200.282 91.482 200.822 91.6376C201.364 91.7797 201.949 91.9951 202.579 92.2861C203.21 92.5621 203.826 92.9294 204.428 93.3872L204.289 90.7632L212.676 90.8492C212.198 94.8772 211.805 98.8902 211.499 102.889C211.424 103.861 211.354 104.783 211.288 105.656C211.235 106.516 211.184 107.376 211.132 108.236C211.095 109.083 211.058 109.944 211.019 110.819C210.996 111.681 210.969 112.593 210.937 113.554L204.102 113.462ZM194.63 107.575C196.311 107.637 197.967 107.653 199.598 107.626C201.229 107.598 202.845 107.491 204.446 107.306C204.538 105.557 204.589 103.861 204.602 102.219C204.628 100.578 204.615 98.8984 204.563 97.1803L203.359 97.0853C201.992 96.9776 200.616 96.9192 199.228 96.9095C197.856 96.8863 196.465 96.9252 195.055 97.0269C194.773 98.4923 194.574 99.9711 194.46 101.463C194.417 102.027 194.39 102.556 194.381 103.051C194.372 103.532 194.371 104.013 194.376 104.495C194.396 104.978 194.423 105.47 194.455 105.968C194.502 106.467 194.56 107.003 194.63 107.575Z" fill="#242E3F"/>
<path d="M295.132 94.222C295.066 93.7755 294.992 93.3297 294.91 92.8846C294.826 92.4246 294.751 91.9713 294.684 91.524C293.977 92.3835 293.204 93.0716 292.367 93.5877C291.543 94.0859 290.775 94.4824 290.062 94.7756C289.23 95.1174 288.393 95.3657 287.549 95.5206C286.007 95.7465 284.483 95.7255 282.978 95.457C281.49 95.2027 280.122 94.6866 278.872 93.9086C277.622 93.1307 276.545 92.091 275.643 90.7902C274.754 89.4715 274.133 87.885 273.779 86.0315C273.499 84.151 273.5 82.4029 273.78 80.7872C274.058 79.1558 274.623 77.7107 275.476 76.4526C276.329 75.1937 277.467 74.1531 278.889 73.3309C280.309 72.4932 282.012 71.9211 283.999 71.6147C284.061 71.6056 284.295 71.5872 284.7 71.5594C285.118 71.5138 285.638 71.5087 286.258 71.544C286.875 71.5639 287.558 71.653 288.307 71.8112C289.053 71.9541 289.806 72.1982 290.566 72.5437L289.774 69.7541L298.818 67.793C299.29 72.2437 299.851 76.6575 300.501 81.0348C300.659 82.0985 300.809 83.1083 300.951 84.0642C301.106 85.0022 301.261 85.9402 301.416 86.8774C301.584 87.7982 301.754 88.734 301.927 89.6847C302.114 90.6182 302.307 91.6055 302.509 92.6468L295.132 94.222ZM283.499 90.2075C285.322 89.862 287.108 89.4752 288.857 89.0459C290.605 88.6173 292.317 88.1064 293.994 87.5147C293.665 85.6103 293.305 83.7732 292.916 82.0035C292.542 80.2307 292.118 78.4273 291.639 76.5917L290.321 76.7839C288.825 77.0031 287.33 77.2769 285.834 77.606C284.352 77.9171 282.865 78.3001 281.373 78.7549C281.427 80.4005 281.576 82.0401 281.819 83.6738C281.911 84.2901 282.012 84.8661 282.123 85.4009C282.231 85.9207 282.348 86.4391 282.472 86.9567C282.612 87.4713 282.76 87.9927 282.917 88.5215C283.09 89.0474 283.283 89.6091 283.499 90.2075Z" fill="#242E3F"/>
<path d="M243.312 88.6141C243.494 90.5844 243.389 92.3811 242.999 94.0057C242.622 95.6124 241.988 97.0044 241.095 98.1818C240.202 99.3584 239.065 100.303 237.685 101.015C236.304 101.728 234.707 102.166 232.893 102.329C231.85 102.392 230.812 102.342 229.78 102.181C229.344 102.11 228.883 102.016 228.395 101.901C227.922 101.768 227.438 101.606 226.943 101.412C226.463 101.201 225.994 100.949 225.538 100.657C225.082 100.364 224.652 100.014 224.248 99.6052C224.545 102.296 224.854 104.953 225.175 107.578C225.498 110.219 225.836 112.754 226.187 115.185L217.172 115.426C217.088 112.621 216.967 109.676 216.81 106.592C216.652 103.508 216.469 100.402 216.26 97.2745C216.065 94.1299 215.841 91.0122 215.587 87.9207C215.349 84.8278 215.099 81.8627 214.837 79.0263L222.784 78.3097C222.779 79.2955 222.798 80.2709 222.839 81.2366C223.165 80.8095 223.528 80.4355 223.927 80.1131C224.341 79.7743 224.767 79.4736 225.204 79.2118C225.641 78.95 226.08 78.7196 226.523 78.5206C226.981 78.3202 227.419 78.1541 227.836 78.021C228.807 77.6948 229.812 77.4689 230.85 77.344C231.717 77.2655 232.611 77.3126 233.533 77.4831C234.454 77.6387 235.353 77.9147 236.233 78.3127C237.128 78.7084 237.97 79.2207 238.759 79.8483C239.564 80.4751 240.284 81.2201 240.92 82.0848C241.557 82.9488 242.084 83.9264 242.503 85.017C242.92 86.0911 243.189 87.2909 243.312 88.6141ZM223.967 96.5557C225.144 96.7359 226.243 96.8436 227.264 96.878C228.299 96.896 229.376 96.8548 230.495 96.7539C231.157 96.694 231.849 96.608 232.569 96.4951C233.291 96.3829 234.073 96.2482 234.917 96.0926C234.93 95.3768 234.913 94.6714 234.865 93.9765C234.832 93.2802 234.783 92.577 234.718 91.8679C234.586 90.434 234.4 89.0285 234.162 87.6522C233.922 86.2594 233.634 84.8629 233.298 83.4634C231.791 83.5038 230.471 83.5749 229.335 83.6773C228.784 83.7274 228.257 83.791 227.755 83.8681C227.253 83.9287 226.743 84.0064 226.227 84.1007C225.726 84.1777 225.209 84.2645 224.677 84.3595C224.162 84.4538 223.607 84.56 223.013 84.6767C223.232 88.0733 223.503 91.5291 223.827 95.0432L223.967 96.5557Z" fill="#242E3F"/>
<path d="M148.861 73.8374C142.409 73.7403 138.346 76.5743 138.196 86.5332C138.03 97.516 143.909 98.3531 150.361 98.4496C158.964 98.5797 161.298 92.6301 160.249 87.7517L155.387 87.6784C155 88.5176 156.419 93.6788 149.318 93.1978C144.793 92.8912 143.359 91.4804 143.432 86.6117C143.518 80.8641 144.674 78.6373 148.789 78.6986C153.277 78.7667 153.743 80.4579 154.367 80.9299L151.341 83.129L161.042 84.7709L161.925 75.8076L158.899 78.006C157.419 76.9588 156.336 74.3239 148.861 73.8374Z" fill="#242E3F"/>
<path d="M380.743 107.836C380.945 106.583 379.237 103.317 379.237 103.317L376.706 109.592L372.971 114.436L374.752 116.551C374.752 116.551 380.541 109.088 380.743 107.836Z" fill="#F3D24F"/>
<path d="M369.258 122.036C370.097 120.607 367.06 117.242 367.06 117.242L363.119 124.892L355.173 127.69C355.173 127.69 356.108 131.762 358.618 132.329C361.129 132.896 368.418 123.466 369.258 122.036Z" fill="#F3D24F"/>
<path d="M356.346 121.983C357.907 122.439 360.352 118.872 360.352 118.872L353.67 116.261L348.292 109.872C348.292 109.872 344.781 110.973 344.975 114.479C345.168 117.986 354.784 121.528 356.346 121.983Z" fill="#F3D24F"/>
<path d="M375.529 113.105L372.206 114.47L375.84 119.379L373.887 125.35C373.887 125.35 378.043 125.374 379.226 124.05C380.408 122.725 375.529 113.105 375.529 113.105Z" fill="#F3D24F"/>
<path d="M379.252 103.243C377.624 100.946 370.468 102.946 367.447 103.824C366.12 101.525 361.676 95.4455 359.443 96.4314C357.211 97.4173 356.69 103.164 356.38 106.76C353.433 107.226 346.173 110.04 345.581 112.316C344.988 114.591 350.731 118.181 354.288 119.31C354.404 122.386 354.358 129.578 356.427 130.021C358.558 130.479 363.07 125.893 365.557 123.192C368.439 123.871 374.429 126.697 376.678 124.662C378.927 122.627 375.478 116.654 374.063 113.665C376.155 110.818 380.935 105.618 379.252 103.243Z" fill="#FFF537"/>
<path d="M304.969 147.159C306.011 146.435 307.175 142.937 307.175 142.937L300.902 145.473L294.822 146.15L294.536 148.899C294.536 148.899 303.927 147.883 304.969 147.159Z" fill="#DB7372"/>
<path d="M286.775 148.755C288.386 148.366 288.7 143.844 288.7 143.844L280.457 146.321L272.927 142.547C272.927 142.547 270.645 146.047 271.981 148.247C273.315 150.447 285.164 149.143 286.775 148.755Z" fill="#DB7372"/>
<path d="M277.846 139.426C278.603 140.866 282.868 140.149 282.868 140.149L280.106 133.529L280.97 125.222C280.97 125.222 277.739 123.46 275.351 126.034C272.962 128.609 277.091 137.987 277.846 139.426Z" fill="#DB7372"/>
<path d="M297.554 147.064L294.264 145.622L293.254 151.645L287.601 154.387C287.601 154.387 290.47 157.394 292.244 157.325C294.019 157.256 297.554 147.064 297.554 147.064Z" fill="#DB7372"/>
<path d="M307.238 142.896C307.761 140.13 301.353 136.369 298.623 134.804C299.357 132.254 300.646 124.834 298.386 123.913C296.126 122.991 291.629 126.607 288.826 128.88C286.444 127.084 279.378 123.814 277.328 124.968C275.279 126.122 276.684 132.747 278.341 136.09C276.208 138.31 271 143.27 272.117 145.067C273.268 146.918 279.701 146.98 283.372 146.894C284.885 149.439 287.01 155.711 290.037 155.916C293.063 156.121 294.967 149.492 296.135 146.399C299.636 145.927 306.698 145.755 307.238 142.896Z" fill="#F68887"/>
<path d="M357.335 34.9583C358.377 34.234 359.542 30.7363 359.542 30.7363L353.268 33.2733L347.188 33.949L346.902 36.6991C346.902 36.6991 356.293 35.6825 357.335 34.9583Z" fill="#5698C7"/>
<path d="M339.141 36.5549C340.752 36.1663 341.066 31.6439 341.066 31.6439L332.822 34.1209L325.293 30.3467C325.293 30.3467 323.011 33.8469 324.346 36.0469C325.681 38.2469 337.529 36.9436 339.141 36.5549Z" fill="#5698C7"/>
<path d="M330.212 27.2264C330.968 28.6659 335.233 27.949 335.233 27.949L332.472 21.328L333.336 13.0219C333.336 13.0219 330.105 11.2599 327.716 13.8344C325.328 16.4088 329.457 25.7868 330.212 27.2264Z" fill="#5698C7"/>
<path d="M349.922 34.8638L346.633 33.4214L345.623 39.4448L339.97 42.1861C339.97 42.1861 342.839 45.1929 344.613 45.1241C346.388 45.0553 349.922 34.8638 349.922 34.8638Z" fill="#5698C7"/>
<path d="M359.604 30.6955C360.127 27.9293 353.718 24.169 350.989 22.6049C351.722 20.0537 353.011 12.6342 350.752 11.7127C348.492 10.7911 343.994 14.4072 341.191 16.6801C338.809 14.8834 331.743 11.614 329.693 12.7682C327.644 13.9222 329.049 20.5466 330.706 23.8902C328.574 26.11 323.365 31.0698 324.482 32.8668C325.634 34.7181 332.066 34.7797 335.737 34.6935C337.25 37.2393 339.375 43.511 342.402 43.7161C345.428 43.9212 347.332 37.292 348.5 34.199C352.002 33.727 359.063 33.5553 359.604 30.6955Z" fill="#91CCF4"/>
<path d="M50.8943 61.8975C48.3227 61.6505 45.7448 61.5526 43.1775 61.2559C41.5093 61.0631 39.6879 61.0347 38.0491 60.6862C37.6836 60.6086 38.6423 60.8099 38.7171 60.8212C39.1915 60.8933 39.6628 60.8076 40.0419 61.11" stroke="#956F43" stroke-width="3" stroke-linecap="round"/>
<path d="M45.1828 61.9497C44.9321 63.1787 44.7831 64.4254 44.5224 65.651C44.4373 66.0512 44.2478 66.393 44.6961 66.0256" stroke="#956F43" stroke-width="3" stroke-linecap="round"/>
<path d="M49.1987 67.4893C46.4483 67.1859 43.6822 66.783 40.9238 66.5602C40.3242 66.5118 39.7245 66.4652 39.1246 66.4169C39.0679 66.4124 37.7473 66.4566 38.3025 66.3125" stroke="#956F43" stroke-width="3" stroke-linecap="round"/>
<path d="M37.658 69.3423C39.6829 69.5028 41.2703 69.9766 43.1137 70.7556C44.1492 71.1931 44.759 71.9536 44.6083 73.1911C44.2137 76.4332 38.6792 76.0569 36.7852 76.0898" stroke="#956F43" stroke-width="3" stroke-linecap="round"/>
<path d="M40.9228 70.6694C40.5801 72.2812 40.3711 74.0909 40.3511 75.7404" stroke="#956F43" stroke-width="3" stroke-linecap="round"/>
<path d="M43.5025 82.4649C44.3577 77.5491 38.7962 78.6015 37.2266 79.3824C34.4776 81.8344 37.6084 84.2848 38.7084 83.8502" stroke="#956F43" stroke-width="3" stroke-linecap="round"/>
<path d="M46.0188 87.4038C43.4881 87.6252 40.8989 87.6835 38.0869 87.0447C37.364 86.8607 35.4501 86.4792 34.7212 86.3154M43.638 91.8207C42.7406 91.7003 40.7317 93.4783 39.2708 87.7725M39.3994 87.8952C38.4703 93.227 37.6417 91.7743 34.9661 90.7967" stroke="#956F43" stroke-width="3" stroke-linecap="round"/>
<path d="M40.5979 104.723C42.9081 104.596 43.742 100.431 41.7654 98.666C40.8231 97.8245 38.6142 95.8416 34.1041 97.9696C30.975 100.004 32.2791 103.304 35.3078 103.888" stroke="#956F43" stroke-width="3" stroke-linecap="round"/>
<path d="M40.4296 108.477C38.8853 108.008 34.9918 106.972 33.4761 106.42C33.2727 106.345 32.547 105.946 32.3345 106.163C31.7213 106.787 31.4658 108.966 31.5066 109.714" stroke="#956F43" stroke-width="3" stroke-linecap="round"/>
<path d="M35.838 113.597C34.4598 111.629 31.3596 111.847 30.9511 113.286C29.6946 117.712 33.0337 117.121 34.8808 116.645" stroke="#956F43" stroke-width="3" stroke-linecap="round"/>
<path d="M36.0099 121.171C33.7879 120.699 27.0969 119.402 29.319 119.875" stroke="#956F43" stroke-width="3" stroke-linecap="round"/>
<path d="M35.717 121.362C35.8234 122.58 36.4885 125.036 34.5962 125.176C33.1986 125.28 32.848 124.29 32.47 123.064C32.3823 122.779 32.0913 120.24 32.1746 121.706C32.2452 122.95 32.0336 123.916 30.9091 124.646C28.742 126.053 26.9108 123.527 27.3557 121.435C27.5008 120.753 27.9256 120.29 28.3247 119.79" stroke="#956F43" stroke-width="3" stroke-linecap="round"/>
<path d="M43.3402 157.987C43.307 157.985 42.6742 157.654 41.4418 156.994C41.0356 157.549 40.661 158.019 40.3183 158.405C39.9884 158.798 39.6864 159.113 39.4125 159.349C39.2094 159.404 38.9663 159.349 38.6831 159.186C38.1553 158.881 37.9244 158.568 37.9904 158.245C38.2802 157.743 38.8365 157.017 39.6594 156.068C39.196 155.8 38.8742 155.615 38.6939 155.511C38.5211 155.394 38.3768 155.302 38.2609 155.235C38.1579 155.176 38.0227 155.098 37.8554 155.001C37.7084 154.899 37.4225 154.725 36.9976 154.48C36.856 154.398 36.687 154.275 36.4904 154.11C36.3142 153.94 36.1352 153.759 35.9535 153.568C35.7922 153.372 35.6372 153.18 35.4887 152.991C35.3531 152.81 35.2689 152.659 35.2363 152.537C35.2646 152.398 35.3233 152.252 35.4125 152.098C35.6429 151.699 36.0327 151.305 36.5821 150.919C37.0124 150.738 37.7421 150.233 38.7709 149.403L41.8006 147.856C41.9962 147.815 42.2035 147.857 42.4223 147.984C42.9629 148.295 43.1032 148.677 42.8431 149.127C42.8357 149.141 42.7552 149.206 42.6016 149.322C42.4481 149.44 42.2326 149.59 41.9552 149.774C41.6907 149.964 41.3717 150.174 40.9983 150.405C40.6322 150.623 40.2331 150.839 39.8007 151.053L37.5835 152.707C37.5998 152.769 37.6467 152.821 37.7239 152.866C37.8269 152.925 37.9116 152.957 37.9779 152.961C38.0517 152.952 38.0849 152.954 38.0774 152.967C38.1492 152.991 38.2173 153.021 38.2817 153.059C38.3663 153.09 38.4473 153.128 38.5246 153.173C38.6662 153.255 38.8067 153.353 38.9463 153.468C39.1063 153.578 39.2754 153.701 39.4536 153.838C39.8141 154.046 40.25 154.272 40.7615 154.516L41.7357 153.096C41.7898 152.973 41.8438 152.85 41.8978 152.727C41.9647 152.611 42.0316 152.495 42.0985 152.379C42.262 152.096 42.4374 151.837 42.6246 151.602C42.8248 151.373 43.0103 151.112 43.1813 150.815C43.2259 150.738 43.2975 150.6 43.3961 150.4C43.5021 150.186 43.6055 149.962 43.7061 149.729C43.8195 149.503 43.9218 149.296 44.013 149.108C44.1042 148.92 44.1572 148.814 44.1721 148.788C44.4866 148.54 44.7984 148.506 45.1073 148.684C45.1514 148.727 45.1992 148.763 45.2507 148.793C45.2947 148.836 45.3554 148.879 45.4326 148.923C45.5099 148.968 45.5962 149.026 45.6918 149.099C45.7007 149.173 45.6751 149.321 45.6151 149.544C45.5755 149.761 45.5108 150.007 45.421 150.281C45.3387 150.542 45.2426 150.813 45.1325 151.093C45.03 151.359 44.9267 151.583 44.8226 151.763C44.7111 151.956 44.5746 152.178 44.4131 152.428C44.2516 152.678 44.0455 153.005 43.7947 153.41C43.7779 153.469 43.7137 153.594 43.6022 153.787C43.4982 153.968 43.358 154.196 43.1816 154.472C43.0052 154.747 42.7927 155.071 42.5439 155.442L42.7371 155.553C42.9173 155.657 43.1093 155.786 43.3133 155.938C43.5376 156.084 43.7904 156.256 44.0716 156.452C44.2973 156.686 44.2876 157.015 44.0423 157.44C43.8639 157.749 43.6298 157.931 43.3402 157.987ZM49.1155 164.024C49.0362 164.012 48.957 164.001 48.8778 163.989C48.806 163.965 48.7315 163.931 48.6542 163.886L48.577 163.842L48.0942 163.563C48.0042 163.511 47.914 163.459 47.8239 163.407C47.7541 163.35 47.6677 163.291 47.5647 163.232C47.4617 163.172 47.355 163.119 47.2446 163.072C47.1416 163.013 47.0322 162.95 46.9164 162.883C46.7747 162.801 46.6002 162.658 46.3928 162.452C46.1928 162.234 45.9061 162.017 45.5328 161.801C45.4556 161.756 45.3746 161.718 45.2899 161.687C45.2127 161.642 45.129 161.594 45.0389 161.542C44.9488 161.49 44.4758 161.105 43.6198 160.388C43.513 159.949 43.5376 159.594 43.6937 159.324C43.82 159.105 43.9951 158.906 44.219 158.726C44.6509 158.632 45.0063 158.537 45.2851 158.441C45.5639 158.344 45.7791 158.254 45.9307 158.169C46.4111 157.932 46.8692 157.733 47.3051 157.573C47.7612 157.407 48.2035 157.251 48.6319 157.103C48.7056 157.094 48.8146 157.054 48.9587 156.983C49.1232 156.906 49.2978 156.826 49.4825 156.745C49.6672 156.663 49.852 156.58 50.0367 156.498C50.2289 156.403 50.3896 156.333 50.5189 156.287C51.0691 156.108 51.4743 155.792 51.7344 155.342C51.9872 154.904 51.8882 154.555 51.4377 154.295C51.2832 154.205 51.0945 154.131 50.8717 154.072C50.6563 153.998 50.4362 153.949 50.2114 153.922C49.9994 153.902 49.7865 153.899 49.5725 153.913C49.3587 153.927 49.1796 153.97 49.0355 154.041C48.9245 154.114 48.7719 154.215 48.5778 154.343C48.3965 154.478 48.1922 154.609 47.9648 154.736C47.7449 154.849 47.5233 154.935 47.2999 154.995C47.084 155.042 46.8923 155.018 46.725 154.921C46.4804 154.78 46.3136 154.564 46.2246 154.272C46.1355 153.98 46.169 153.699 46.3251 153.429C46.3994 153.3 46.5587 153.143 46.8029 152.958C47.06 152.78 47.3363 152.614 47.6321 152.458C47.9481 152.297 48.2556 152.166 48.5548 152.065C48.8668 151.97 49.1186 151.935 49.3103 151.96C50.4294 151.954 51.5168 152.255 52.5724 152.865C52.9843 153.103 53.2883 153.364 53.4843 153.649C53.6932 153.941 53.8218 154.238 53.8702 154.541C53.9187 154.843 53.8971 155.149 53.8054 155.456C53.7265 155.771 53.6053 156.069 53.4418 156.353C52.9736 157.164 52.3388 157.699 51.5375 157.957C51.3067 158.029 51.0851 158.116 50.8726 158.216C50.6601 158.316 50.4578 158.414 50.2656 158.509C50.0937 158.599 49.9321 158.686 49.7805 158.77C49.6363 158.842 49.5301 158.892 49.4617 158.921C49.2755 158.916 48.5081 159.22 47.1595 159.831L46.3676 160.044C46.8053 160.296 47.1572 160.533 47.4236 160.756C47.7103 160.973 47.861 161.068 47.8759 161.043C48.0948 161.169 48.3587 161.322 48.6676 161.5C48.9969 161.673 49.3675 161.878 49.7794 162.116C49.9596 162.22 50.0408 162.421 50.0229 162.72C50.0252 163.013 49.9521 163.288 49.8035 163.546C49.6028 163.894 49.3735 164.053 49.1155 164.024ZM57.0799 168.622C57.0007 168.61 56.9215 168.598 56.8423 168.587C56.7704 168.563 56.6959 168.529 56.6187 168.484L56.5415 168.439L56.0587 168.161C55.9686 168.108 55.8785 168.057 55.7884 168.005C55.7186 167.947 55.6321 167.889 55.5291 167.829C55.4262 167.77 55.3195 167.717 55.2091 167.67C55.1061 167.611 54.9966 167.547 54.8808 167.481C54.7392 167.399 54.5647 167.256 54.3573 167.05C54.1573 166.832 53.8706 166.615 53.4973 166.399C53.42 166.354 53.3391 166.316 53.2544 166.284C53.1772 166.24 53.0935 166.191 53.0034 166.14C52.9133 166.087 52.4403 165.703 51.5842 164.986C51.4774 164.547 51.5021 164.192 51.6581 163.921C51.7845 163.703 51.9596 163.503 52.1835 163.324C52.6153 163.23 52.9707 163.134 53.2496 163.038C53.5284 162.941 53.7436 162.852 53.8951 162.767C54.3756 162.53 54.8337 162.331 55.2695 162.17C55.7257 162.005 56.1679 161.848 56.5964 161.7C56.6701 161.692 56.779 161.652 56.9232 161.581C57.0876 161.504 57.2622 161.424 57.4469 161.342C57.6317 161.26 57.8164 161.178 58.0012 161.096C58.1934 161.001 58.3541 160.931 58.4834 160.885C59.0336 160.705 59.4387 160.39 59.6989 159.94C59.9516 159.501 59.8527 159.153 59.4021 158.892C59.2476 158.803 59.059 158.729 58.8362 158.669C58.6208 158.596 58.4007 158.546 58.1758 158.519C57.9639 158.5 57.751 158.497 57.537 158.511C57.3231 158.525 57.144 158.567 56.9999 158.639C56.8889 158.712 56.7364 158.812 56.5423 158.941C56.3609 159.076 56.1566 159.207 55.9293 159.334C55.7094 159.447 55.4878 159.533 55.2644 159.593C55.0485 159.64 54.8568 159.616 54.6895 159.518C54.4449 159.378 54.2781 159.161 54.189 158.869C54.1 158.577 54.1335 158.297 54.2895 158.026C54.3639 157.898 54.5232 157.741 54.7674 157.556C55.0244 157.378 55.3008 157.212 55.5965 157.056C55.9125 156.895 56.2201 156.764 56.5192 156.662C56.8312 156.568 57.0831 156.532 57.2747 156.558C58.3939 156.551 59.4812 156.853 60.5369 157.462C60.9488 157.7 61.2528 157.962 61.4488 158.246C61.6577 158.539 61.7863 158.836 61.8347 159.138C61.8832 159.441 61.8615 159.746 61.7698 160.053C61.691 160.368 61.5698 160.667 61.4063 160.951C60.9381 161.762 60.3033 162.296 59.502 162.555C59.2712 162.627 59.0495 162.714 58.8371 162.814C58.6246 162.914 58.4222 163.012 58.23 163.107C58.0582 163.197 57.8965 163.284 57.7449 163.368C57.6008 163.439 57.4946 163.49 57.4262 163.519C57.24 163.514 56.4726 163.817 55.124 164.429L54.332 164.642C54.7698 164.894 55.1217 165.131 55.3881 165.354C55.6747 165.571 55.8255 165.666 55.8403 165.641C56.0592 165.767 56.3231 165.919 56.632 166.098C56.9614 166.271 57.3319 166.476 57.7439 166.713C57.9241 166.817 58.0052 167.019 57.9873 167.318C57.9897 167.611 57.9166 167.886 57.768 168.144C57.5672 168.491 57.3379 168.65 57.0799 168.622ZM65.0375 171.67C64.8487 171.819 64.6444 171.95 64.4245 172.063C64.2175 172.184 63.9644 172.296 63.6652 172.398C63.3736 172.487 63.0154 172.572 62.591 172.653C62.1667 172.733 61.6389 172.815 61.008 172.897C59.4907 172.879 58.4875 172.729 57.9983 172.447C57.7408 172.298 57.6401 172.145 57.6961 171.989C57.765 171.84 57.8701 171.644 58.0112 171.399C58.1302 171.193 58.2948 171.056 58.5053 170.989C58.7159 170.922 58.9612 170.884 59.2415 170.873C59.5218 170.863 59.8343 170.872 60.179 170.9C60.5236 170.927 60.896 170.936 61.2961 170.927C61.3679 170.951 61.4878 170.952 61.6556 170.928C61.8364 170.913 62.0662 170.857 62.345 170.76L63.55 170.323C64.025 170.065 64.3628 169.762 64.5635 169.415C64.7493 169.093 64.8356 168.765 64.8223 168.432C64.8293 168.093 64.7718 167.776 64.6496 167.482C64.5273 167.188 64.3598 166.929 64.1469 166.703C63.9544 166.472 63.7551 166.297 63.5491 166.178C63.4075 166.096 63.2548 166.034 63.0908 165.99C62.9473 165.942 62.8047 165.876 62.6631 165.795C62.5858 165.751 62.4774 165.671 62.3378 165.556C62.211 165.449 62.0954 165.321 61.991 165.176C61.8866 165.029 61.8061 164.871 61.7497 164.701C61.7062 164.539 61.729 164.38 61.8183 164.226C61.8777 164.123 61.9288 164.05 61.9713 164.006L62.3303 163.518C62.412 163.376 62.5539 163.175 62.7561 162.914C62.9711 162.661 63.1861 162.407 63.4011 162.154C63.6161 161.9 63.8024 161.682 63.9599 161.498C64.1303 161.322 64.2118 161.24 64.2044 161.253C64.5389 160.674 64.8143 160.301 65.0307 160.134C65.2601 159.975 65.4841 159.958 65.703 160.085C65.9991 160.255 66.2692 160.471 66.5132 160.732C66.7572 160.994 66.9758 161.18 67.1689 161.291C67.2075 161.314 67.2333 161.329 67.2462 161.335C67.2793 161.338 67.3152 161.35 67.3538 161.372C67.3796 161.387 67.5009 161.474 67.7178 161.634C67.9346 161.793 68.1708 161.964 68.4262 162.145C68.6817 162.327 68.905 162.491 69.0961 162.635C69.3001 162.787 69.4021 162.864 69.4021 162.864C69.705 163.141 69.7153 163.525 69.4329 164.014C69.1356 164.529 68.7708 164.67 68.3386 164.437C68.2118 164.33 68.0262 164.206 67.7816 164.065C67.5445 163.911 67.2622 163.73 66.935 163.525C66.8191 163.457 66.6436 163.33 66.4084 163.143C66.1936 162.95 66.0282 162.821 65.9123 162.754C65.7965 162.687 65.6888 162.65 65.5892 162.644C65.4114 162.834 65.2011 163.064 64.9584 163.336C64.7231 163.595 64.4655 163.892 64.1856 164.229C64.4688 164.392 64.7666 164.589 65.079 164.821C65.4043 165.06 65.6962 165.358 65.9545 165.713C66.2203 166.055 66.4287 166.467 66.5796 166.949C66.7305 167.431 66.7897 167.997 66.7573 168.648C66.7006 169.37 66.5533 169.937 66.3155 170.349C66.1 170.722 65.6739 171.163 65.0375 171.67Z" fill="#956F43"/>
<path d="M53.7669 58.1152C51.4973 57.9556 37.6584 58.7652 35.3887 58.6057C33.1191 58.4462 19.2071 126.963 21.5122 127.495C23.8173 128.026 38.9438 131.284 41.1425 130.699C43.3411 130.114 56.0365 58.2748 53.7669 58.1152Z" stroke="#956F43" stroke-width="2"/>
<path d="M192.38 139.521C191.908 139.41 191.451 139.294 191.009 139.171L186.07 134.248C187.213 134.543 188.669 134.522 189.953 134.698C191.236 134.873 192.309 134.836 193.584 134.939L194.475 135.01C194.794 132.688 195.066 130.428 195.289 128.231C195.498 126.018 195.698 123.723 195.892 121.348L196.396 116.873C197.277 117.001 198.144 117.154 198.995 117.332C200.787 117.709 202.537 118.235 204.247 118.911C204.109 119.891 203.985 120.778 203.877 121.571C203.769 122.364 203.677 123.136 203.601 123.889C203.511 124.639 203.434 125.413 203.369 126.209C203.29 127.004 203.211 127.888 203.131 128.858C202.828 132.594 202.613 136.316 202.487 140.023C202.347 143.715 202.27 147.432 202.257 151.178L192.039 149.64C192.391 147.817 192.72 146.101 193.025 144.492C193.317 142.883 193.581 141.337 193.818 139.854C193.331 139.743 192.852 139.632 192.38 139.521Z" fill="#242E3F"/>
<path d="M183.059 133.769C183.502 133.856 185.656 134.148 186.07 134.248L191.009 139.171C189.937 138.934 186.679 138.785 185.473 138.676C184.267 138.568 183.065 138.496 181.866 138.461C181.525 138.451 181.866 138.461 180.809 138.402C180.583 140.648 180.365 142.976 180.151 145.384L179.698 149.064C178.87 148.982 178.056 148.873 177.256 148.739C175.574 148.455 173.933 148.017 172.332 147.426C172.475 146.429 172.523 146.393 172.635 145.587C172.748 144.78 172.844 143.995 172.925 143.231C173.02 142.469 173.103 141.684 173.174 140.876C173.259 140.069 173.345 139.173 173.432 138.189C173.767 134.4 174.017 130.631 174.184 126.881C174.364 123.146 174.644 117.657 174.705 113.875L184.306 114.881C183.951 116.74 183.46 120.221 183.151 121.862C182.856 123.502 181.951 132.001 181.709 133.51C182.166 133.597 182.616 133.683 183.059 133.769Z" fill="#242E3F"/>
<path fill-rule="evenodd" clip-rule="evenodd" d="M239.296 147.905L228.841 136.704L226.44 134.079L226.488 134.131C225.343 134.415 224.789 134.298 223.505 134.462C222.222 134.625 220.943 134.751 219.669 134.842L218.644 134.082C218.346 131.76 218.23 130.323 218.028 128.125C217.839 125.913 217.66 123.618 217.489 121.244L217.499 119.074L217.736 116.678C216.609 116.814 215.505 116.989 214.426 117.204C212.632 117.564 210.879 118.073 209.165 118.733C209.294 119.713 209.409 120.6 209.51 121.393C209.611 122.186 209.695 122.959 209.764 123.711C209.847 124.461 209.917 125.235 209.974 126.031C210.046 126.826 210.117 127.709 210.187 128.679C210.456 132.414 210.637 136.134 210.729 139.839C210.834 143.527 210.876 147.242 210.855 150.983L221.076 149.541C220.742 147.717 220.429 146 220.138 144.39C219.862 142.78 219.612 141.233 219.389 139.75C219.876 139.643 220.357 139.537 220.829 139.431C221.302 139.324 221.759 139.212 222.202 139.094L229.32 149.722L239.296 147.905Z" fill="#242E3F"/>
<path d="M218.644 134.082L219.669 134.842C220.943 134.751 222.222 134.625 223.505 134.462C224.789 134.298 225.343 134.415 226.488 134.131C226.634 133.335 227.374 132.093 227.389 131.088C227.417 130.067 227.392 129.014 227.314 127.928C227.264 127.233 227.192 126.54 227.099 125.848C227.004 125.142 226.897 124.465 226.778 123.819C226.657 123.158 226.511 122.535 226.338 121.951C226.293 121.785 226.247 121.624 226.201 121.468L220.551 131.695L218.644 134.082Z" fill="#242E3F"/>
<path d="M229.955 117.919C229.47 117.708 228.975 117.521 228.472 117.357L226.201 121.468C226.247 121.624 226.293 121.785 226.338 121.951C226.511 122.535 226.657 123.158 226.778 123.819C226.897 124.465 227.004 125.142 227.099 125.848C227.192 126.54 227.264 127.233 227.314 127.928C227.392 129.014 227.417 130.067 227.389 131.088C227.374 132.093 226.634 133.335 226.488 134.131L234.572 121.796C234.091 121.025 233.52 120.348 232.861 119.766C232.004 118.997 231.036 118.381 229.955 117.919Z" fill="#242E3F"/>
<path d="M229.955 117.919C231.036 118.381 232.004 118.997 232.861 119.766C233.52 120.348 234.091 121.025 234.572 121.796L239.353 114.073L229.361 115.748L228.472 117.357C228.975 117.521 229.47 117.708 229.955 117.919Z" fill="#242E3F"/>
</svg>
